<svg width="168" height="40" viewBox="0 0 168 40" fill="none" xmlns="http://www.w3.org/2000/svg">
<rect x="0.5" y="0.5" width="39" height="39" rx="4.5" stroke="#8338EC"/>
<rect x="12" y="12" width="16" height="16" rx="8" fill="#8338EC"/>
<path d="M62.056 11.248V13.96H57.592V28H54.232V13.96H49.768V11.248H62.056ZM63.6436 21.304C63.6436 19.96 63.9076 18.768 64.4356 17.728C64.9796 16.688 65.7076 15.888 66.6196 15.328C67.5476 14.768 68.5796 14.488 69.7156 14.488C70.7076 14.488 71.5716 14.688 72.3076 15.088C73.0596 15.488 73.6596 15.992 74.1076 16.6V14.704H77.4916V28H74.1076V26.056C73.6756 26.68 73.0756 27.2 72.3076 27.616C71.5556 28.016 70.6836 28.216 69.6916 28.216C68.5716 28.216 67.5476 27.928 66.6196 27.352C65.7076 26.776 64.9796 25.968 64.4356 24.928C63.9076 23.872 63.6436 22.664 63.6436 21.304ZM74.1076 21.352C74.1076 20.536 73.9476 19.84 73.6276 19.264C73.3076 18.672 72.8756 18.224 72.3316 17.92C71.7876 17.6 71.2036 17.44 70.5796 17.44C69.9556 17.44 69.3796 17.592 68.8516 17.896C68.3236 18.2 67.8916 18.648 67.5556 19.24C67.2356 19.816 67.0756 20.504 67.0756 21.304C67.0756 22.104 67.2356 22.808 67.5556 23.416C67.8916 24.008 68.3236 24.464 68.8516 24.784C69.3956 25.104 69.9716 25.264 70.5796 25.264C71.2036 25.264 71.7876 25.112 72.3316 24.808C72.8756 24.488 73.3076 24.04 73.6276 23.464C73.9476 22.872 74.1076 22.168 74.1076 21.352ZM85.8612 28.216C84.7732 28.216 83.7972 28.024 82.9332 27.64C82.0692 27.24 81.3812 26.704 80.8692 26.032C80.3732 25.36 80.1012 24.616 80.0532 23.8H83.4372C83.5012 24.312 83.7492 24.736 84.1812 25.072C84.6292 25.408 85.1812 25.576 85.8372 25.576C86.4772 25.576 86.9732 25.448 87.3252 25.192C87.6932 24.936 87.8772 24.608 87.8772 24.208C87.8772 23.776 87.6532 23.456 87.2052 23.248C86.7732 23.024 86.0772 22.784 85.1172 22.528C84.1252 22.288 83.3092 22.04 82.6692 21.784C82.0452 21.528 81.5012 21.136 81.0372 20.608C80.5892 20.08 80.3652 19.368 80.3652 18.472C80.3652 17.736 80.5732 17.064 80.9892 16.456C81.4212 15.848 82.0292 15.368 82.8132 15.016C83.6132 14.664 84.5492 14.488 85.6212 14.488C87.2052 14.488 88.4692 14.888 89.4132 15.688C90.3572 16.472 90.8772 17.536 90.9732 18.88H87.7572C87.7092 18.352 87.4852 17.936 87.0852 17.632C86.7012 17.312 86.1812 17.152 85.5252 17.152C84.9172 17.152 84.4452 17.264 84.1092 17.488C83.7892 17.712 83.6292 18.024 83.6292 18.424C83.6292 18.872 83.8532 19.216 84.3012 19.456C84.7492 19.68 85.4452 19.912 86.3892 20.152C87.3492 20.392 88.1412 20.64 88.7652 20.896C89.3892 21.152 89.9252 21.552 90.3732 22.096C90.8372 22.624 91.0772 23.328 91.0932 24.208C91.0932 24.976 90.8772 25.664 90.4452 26.272C90.0292 26.88 89.4212 27.36 88.6212 27.712C87.8372 28.048 86.9172 28.216 85.8612 28.216ZM101.723 28L97.2113 22.336V28H93.8513V10.24H97.2113V20.344L101.675 14.704H106.043L100.187 21.376L106.091 28H101.723ZM120.083 16.432C120.083 17.328 119.867 18.168 119.435 18.952C119.019 19.736 118.355 20.368 117.443 20.848C116.547 21.328 115.411 21.568 114.035 21.568H111.227V28H107.867V11.248H114.035C115.331 11.248 116.435 11.472 117.347 11.92C118.259 12.368 118.939 12.984 119.387 13.768C119.851 14.552 120.083 15.44 120.083 16.432ZM113.891 18.856C114.819 18.856 115.507 18.648 115.955 18.232C116.403 17.8 116.627 17.2 116.627 16.432C116.627 14.8 115.715 13.984 113.891 13.984H111.227V18.856H113.891ZM128.373 28.216C127.093 28.216 125.941 27.936 124.917 27.376C123.893 26.8 123.085 25.992 122.493 24.952C121.917 23.912 121.629 22.712 121.629 21.352C121.629 19.992 121.925 18.792 122.517 17.752C123.125 16.712 123.949 15.912 124.989 15.352C126.029 14.776 127.189 14.488 128.469 14.488C129.749 14.488 130.909 14.776 131.949 15.352C132.989 15.912 133.805 16.712 134.397 17.752C135.005 18.792 135.309 19.992 135.309 21.352C135.309 22.712 134.997 23.912 134.372 24.952C133.765 25.992 132.933 26.8 131.877 27.376C130.837 27.936 129.669 28.216 128.373 28.216ZM128.373 25.288C128.981 25.288 129.549 25.144 130.077 24.856C130.621 24.552 131.053 24.104 131.373 23.512C131.693 22.92 131.853 22.2 131.853 21.352C131.853 20.088 131.517 19.12 130.845 18.448C130.189 17.76 129.381 17.416 128.421 17.416C127.461 17.416 126.653 17.76 125.997 18.448C125.357 19.12 125.037 20.088 125.037 21.352C125.037 22.616 125.349 23.592 125.973 24.28C126.613 24.952 127.413 25.288 128.373 25.288ZM139.477 13.12C138.885 13.12 138.389 12.936 137.989 12.568C137.605 12.184 137.413 11.712 137.413 11.152C137.413 10.592 137.605 10.128 137.989 9.76C138.389 9.376 138.885 9.184 139.477 9.184C140.069 9.184 140.557 9.376 140.941 9.76C141.341 10.128 141.541 10.592 141.541 11.152C141.541 11.712 141.341 12.184 140.941 12.568C140.557 12.936 140.069 13.12 139.477 13.12ZM141.133 14.704V28H137.773V14.704H141.133ZM151.821 14.512C153.405 14.512 154.685 15.016 155.661 16.024C156.637 17.016 157.125 18.408 157.125 20.2V28H153.765V20.656C153.765 19.6 153.501 18.792 152.973 18.232C152.445 17.656 151.725 17.368 150.813 17.368C149.885 17.368 149.149 17.656 148.605 18.232C148.077 18.792 147.813 19.6 147.813 20.656V28H144.453V14.704H147.813V16.36C148.261 15.784 148.829 15.336 149.517 15.016C150.221 14.68 150.989 14.512 151.821 14.512ZM164.232 17.464V23.896C164.232 24.344 164.336 24.672 164.544 24.88C164.768 25.072 165.136 25.168 165.648 25.168H167.208V28H165.096C162.264 28 160.848 26.624 160.848 23.872V17.464H159.264V14.704H160.848V11.416H164.232V14.704H167.208V17.464H164.232Z" fill="black"/>
</svg>
