<svg width="20" height="20" viewBox="0 0 20 20" fill="none" xmlns="http://www.w3.org/2000/svg">
<path d="M2.5 5H4.16667H17.5" stroke="black" stroke-width="2" stroke-linecap="round" stroke-linejoin="round"/>
<path d="M6.66699 4.99996V3.33329C6.66699 2.89127 6.84259 2.46734 7.15515 2.15478C7.46771 1.84222 7.89163 1.66663 8.33366 1.66663H11.667C12.109 1.66663 12.5329 1.84222 12.8455 2.15478C13.1581 2.46734 13.3337 2.89127 13.3337 3.33329V4.99996M15.8337 4.99996V16.6666C15.8337 17.1087 15.6581 17.5326 15.3455 17.8451C15.0329 18.1577 14.609 18.3333 14.167 18.3333H5.83366C5.39163 18.3333 4.96771 18.1577 4.65515 17.8451C4.34259 17.5326 4.16699 17.1087 4.16699 16.6666V4.99996H15.8337Z" stroke="black" stroke-width="2" stroke-linecap="round" stroke-linejoin="round"/>
<path d="M8.33301 9.16663V14.1666" stroke="#8338EC" stroke-width="2" stroke-linecap="round" stroke-linejoin="round"/>
<path d="M11.667 9.16663V14.1666" stroke="#8338EC" stroke-width="2" stroke-linecap="round" stroke-linejoin="round"/>
</svg>
